<?xml version="1.0" encoding="utf-8"?>
<!-- Svg Vector Icons : http://www.onlinewebfonts.com/icon -->
<!DOCTYPE svg PUBLIC "-//W3C//DTD SVG 1.1//EN" "http://www.w3.org/Graphics/SVG/1.1/DTD/svg11.dtd">
<svg version="1.1" xmlns="http://www.w3.org/2000/svg" xmlns:xlink="http://www.w3.org/1999/xlink" x="0px" y="0px" viewBox="0 0 1000 1000" enable-background="new 0 0 1000 1000" xml:space="preserve">
<metadata> Svg Vector Icons : http://www.onlinewebfonts.com/icon </metadata>
<g><g transform="translate(0.000000,511.000000) scale(0.100000,-0.100000)"><path d="M4557.7,4990.4C2801.9,4825.4,1209.1,3654.9,495.2,2004.2C-293.7,175.5,117.9-1910.4,1556.4-3344.6c763.2-763.2,1708.6-1239.1,2786.9-1406.3c300.1-47.2,969-53.6,1254.1-10.7c1811.5,261.5,3301.4,1436.3,3976.7,3132.1c321.6,808.2,409.5,1736.5,244.4,2626.1c-265.8,1453.5-1269.1,2778.3-2636.9,3481.5C6379.9,4891.8,5445.2,5074.1,4557.7,4990.4z M5627.4,4360.2C6997.3,4180.1,8215,3314,8834.5,2079.2c776-1547.8,566-3436.5-527.4-4748.5c-1125.5-1348.4-2992.8-1863-4714.2-1297c-263.7,85.8-750.3,325.9-996.9,488.8C1453.5-2716.4,763.2-1473.1,705.3-64.6c-40.7,990.4,255.1,1963.7,831.8,2744c750.3,1018.3,1925.1,1646.4,3224.2,1723.6C4965,4413.8,5361.6,4394.5,5627.4,4360.2z"/><path d="M4675.6,2735.2c-173.6-34.3-385.9-102.9-512.4-167.2c-426.6-216.5-848.9-694.6-848.9-962.6c0-188.7,135.1-310.8,325.9-293.7c132.9,12.9,190.8,66.4,289.4,261.5c197.2,392.3,653.9,619.6,1161.9,581c673.1-51.4,1076.2-480.2,990.4-1054.7c-47.2-323.7-132.9-430.9-557.4-718.2c-570.2-385.9-731-630.3-731-1125.5c0-184.4,32.2-276.5,126.5-355.9c130.8-109.3,362.3-62.2,441.6,90c19.3,40.7,32.2,122.2,32.2,220.8c0,310.8,47.1,379.5,435.2,641c589.5,396.6,823.2,750.3,864,1307.7c32.2,437.3-162.9,848.9-559.5,1183.4c-169.4,143.6-501.7,313-718.2,368.7C5224.4,2758.8,4862.1,2771.6,4675.6,2735.2z"/><path d="M4945.7-1773.2c-109.3-55.7-158.6-137.2-169.4-274.4c-10.7-143.6,19.3-225.1,117.9-310.8c57.9-51.4,92.2-64.3,169.4-64.3c207.9,0,308.7,113.6,308.7,349.4c0,139.3-4.3,150.1-81.5,231.5C5192.2-1734.6,5065.7-1708.9,4945.7-1773.2z"/></g></g>
</svg>