<?xml version="1.0" encoding="utf-8"?>
<!-- Svg Vector Icons : http://www.onlinewebfonts.com/icon -->
<!DOCTYPE svg PUBLIC "-//W3C//DTD SVG 1.1//EN" "http://www.w3.org/Graphics/SVG/1.1/DTD/svg11.dtd">
<svg version="1.1" xmlns="http://www.w3.org/2000/svg" xmlns:xlink="http://www.w3.org/1999/xlink" x="0px" y="0px" viewBox="0 0 1000 1000" enable-background="new 0 0 1000 1000" xml:space="preserve">
<metadata> Svg Vector Icons : http://www.onlinewebfonts.com/icon </metadata>
<g><path d="M569.4,732.9H161.5c-7.4,0-13.4,6.1-13.4,13.7c0,7.6,6,13.6,13.4,13.6h407.9c7.4,0,13.4-6.1,13.4-13.6C582.8,739.1,576.8,732.9,569.4,732.9L569.4,732.9z M569.4,619.9H161.5c-7.4,0-13.4,6.1-13.4,13.7c0,7.6,6,13.7,13.4,13.7h407.9c7.4,0,13.4-6.1,13.4-13.7C582.8,626.1,576.8,619.9,569.4,619.9L569.4,619.9z M569.4,507H161.5c-7.4,0-13.4,6.1-13.4,13.7c0,7.6,6,13.7,13.4,13.7h407.9c7.4,0,13.4-6.1,13.4-13.7C582.8,513.1,576.8,507,569.4,507L569.4,507z M161.5,423.9h186.6c7.4,0,13.4-6.1,13.4-13.6c0-7.6-6-13.6-13.4-13.6H161.5c-7.4,0-13.4,6.1-13.4,13.6C148.1,417.8,154.1,423.9,161.5,423.9L161.5,423.9z M581,19.8c-6.3-6.3-14.7-9.8-23.6-9.8H43.6C25,10,10,25.3,10,44.1v911.7c0,18.9,15,34.2,33.6,34.2h643.8c18.5,0,33.5-15.3,33.5-34.2V174.4c0-9.2-3.6-17.9-10-24.3L581,19.8L581,19.8z M77.1,921.7V78.3h445.5v111.3c0,11.3,9,20.5,20.1,20.5h111.1v711.6L77.1,921.7L77.1,921.7z M969.9,54H817.9c-11.1,0-20.1,9.2-20.1,20.5v701.8c0,2.8,0.6,5.5,1.6,8l76,181.9c3.2,7.6,10.5,12.5,18.5,12.5c8.1,0,15.3-4.9,18.5-12.5l76-181.9c1-2.5,1.6-5.3,1.6-8V74.5C990,63.1,981,54,969.9,54L969.9,54L969.9,54z M949.7,772.1L920.2,843h-52.5l-29.6-70.8l0-677.2h48.7l-0.1,0.4V739c0,7.5,6,13.7,13.4,13.7c7.4,0,13.4-6.1,13.4-13.7V95.3l-0.1-0.4h36.2L949.7,772.1L949.7,772.1z"/></g>
</svg>